<svg xmlns="http://www.w3.org/2000/svg" width="16" height="16" class="icon" viewBox="0 0 1024 1024"><path fill="#5FCEFF" d="m861.246 337.142 5.626 5.627c29.508 29.507 29.508 77.365 0 106.872-14.738 14.77-34.079 22.123-53.42 22.123s-38.683-7.353-53.42-22.123L569.56 259.17c-29.507-29.508-29.507-77.333 0-106.84s77.365-29.508 106.873 0l5.626 5.626 179.187 179.186z"/><path fill="#FF4893" d="M860.446 158.755c49.2 49.2 49.489 128.835.8 178.387L682.059 157.956c49.552-48.69 129.187-48.401 178.387.799zm-81.073 317.612c31.33 31.298 31.33 82.065 0 113.362-15.665 15.665-36.157 23.466-56.681 23.466s-41.016-7.8-56.681-23.466L429.47 353.191c-31.297-31.298-31.297-82.065 0-113.363 31.299-31.33 82.065-31.33 113.363 0l236.539 236.54z"/><path fill="#FFB578" d="m577.329 506.962 73.433 73.433-534.267 322.311L438.807 368.44z"/><path fill="#4F46A3" d="M116.502 925.085a22.378 22.378 0 0 1-19.17-33.939L419.646 356.88a22.385 22.385 0 0 1 16.454-10.655 22.433 22.433 0 0 1 18.53 6.39L666.582 564.57a22.378 22.378 0 0 1-4.265 34.984L128.052 921.865a22.295 22.295 0 0 1-11.55 3.22zm326.697-520.606L182.374 836.828l432.346-260.83-171.52-171.52z"/><path fill="#4F46A3" d="M722.692 635.576c-27.394 0-53.142-10.661-72.506-30.022L413.647 369.015c-39.98-39.977-39.98-105.03 0-145.008 19.358-19.376 45.109-30.05 72.506-30.05 27.394 0 53.145 10.674 72.512 30.056l236.533 236.533c19.376 19.357 30.047 45.108 30.047 72.506 0 27.394-10.674 53.148-30.057 72.509-19.35 19.354-45.102 30.015-72.496 30.015zM486.153 238.71a57.352 57.352 0 0 0-40.85 16.934c-22.535 22.535-22.535 59.193-.006 81.722l236.542 236.536a57.384 57.384 0 0 0 40.853 16.914c15.44 0 29.952-6.007 40.856-16.914 10.93-10.918 16.944-25.422 16.944-40.854s-6.013-29.939-16.934-40.85L527.009 255.653a57.356 57.356 0 0 0-40.856-16.943z"/><path fill="#4F46A3" d="M813.452 494.142c-26.202 0-50.802-10.192-69.26-28.698l-190.456-190.45c-18.498-18.497-28.686-43.09-28.686-69.245 0-26.157 10.188-50.747 28.689-69.244 18.494-18.498 43.09-28.686 69.257-28.686s50.764 10.188 69.261 28.686l190.44 190.442c38.187 38.187 38.187 100.329 0 138.519-18.45 18.488-43.043 28.676-69.245 28.676zM622.996 152.58c-14.21 0-27.566 5.53-37.611 15.575a52.813 52.813 0 0 0-15.579 37.599c0 14.197 5.531 27.55 15.576 37.595L775.856 433.82c10.023 10.048 23.37 15.569 37.596 15.569s27.57-5.525 37.58-15.553c20.754-20.758 20.754-54.501.016-75.243l-190.44-190.442a52.848 52.848 0 0 0-37.612-15.572z"/><path fill="#4F46A3" d="M860.462 360.3a22.28 22.28 0 0 1-15.767-6.499c-8.76-8.715-8.833-22.848-.115-31.61l.147-.148c.182-.198.368-.393.557-.585 39.958-40.668 39.66-106.559-.662-146.878-40.316-40.32-106.208-40.623-146.879-.662a18.382 18.382 0 0 1-.575.543c-8.747 8.674-22.957 8.734-31.672.023-8.737-8.737-8.833-22.817-.093-31.554.438-.434.844-.83 1.263-1.22 58.139-56.823 152.083-56.305 209.605 1.22 57.522 57.522 58.04 151.454 1.234 209.596-.361.39-.732.767-1.128 1.167a22.385 22.385 0 0 1-15.915 6.608zM438.957 612.847a22.378 22.378 0 0 1-11.582-41.54L565.769 487.8a22.391 22.391 0 0 1 33.954 19.163 22.375 22.375 0 0 1-11.589 19.616l-137.64 83.046a22.257 22.257 0 0 1-11.537 3.222z"/></svg>